<svg width="16" height="16" viewBox="0 0 16 16" fill="none" xmlns="http://www.w3.org/2000/svg">
<g clip-path="url(#clip0_507_6760)">
<circle cx="8" cy="8" r="8" fill="white"/>
<g clip-path="url(#clip1_507_6760)">
<mask id="mask0_507_6760" style="mask-type:luminance" maskUnits="userSpaceOnUse" x="2" y="2" width="12" height="12">
<path d="M13.5999 2.40002H2.3999V13.6H13.5999V2.40002Z" fill="white"/>
</mask>
<g mask="url(#mask0_507_6760)">
<path d="M7.9996 6.95001C7.79194 6.95003 7.58895 7.01163 7.41629 7.12701C7.24364 7.2424 7.10908 7.40638 7.02961 7.59824C6.95015 7.7901 6.92937 8.00122 6.96989 8.20488C7.0104 8.40855 7.11041 8.59564 7.25724 8.74247C7.40408 8.88931 7.59117 8.98932 7.79484 9.02983C7.99851 9.07035 8.20962 9.04956 8.40148 8.97011C8.59333 8.89064 8.75732 8.75608 8.8727 8.58343C8.98809 8.41077 9.04969 8.20778 9.04971 8.00012C9.04971 7.86222 9.02255 7.72566 8.96979 7.59825C8.91701 7.47084 8.83966 7.35508 8.74215 7.25756C8.64464 7.16005 8.52887 7.0827 8.40146 7.02993C8.27406 6.97717 8.1375 6.95001 7.9996 6.95001Z" fill="#DA0000"/>
<path d="M13.5999 8.00343C13.6006 6.82114 13.2272 5.66895 12.533 4.71193C11.8388 3.7549 10.8595 3.04213 9.73541 2.67573C8.61131 2.30933 7.40011 2.3081 6.27528 2.6722C5.15046 3.03631 4.16973 3.74708 3.47358 4.70268C2.77744 5.65829 2.4016 6.80971 2.39991 7.99199C2.39821 9.17428 2.77075 10.3268 3.46415 11.2844C4.15755 12.242 5.13624 12.9555 6.26001 13.3229C7.38379 13.6902 8.59499 13.6924 9.72008 13.3293H13.5999V11.7947H12.1118C13.0687 10.764 13.6003 9.40968 13.5999 8.00343ZM8.00344 11.6731C7.27764 11.6731 6.56813 11.458 5.96465 11.0547C5.36116 10.6515 4.8908 10.0783 4.61304 9.40779C4.33529 8.73721 4.26262 7.99935 4.40422 7.28749C4.54582 6.57564 4.89533 5.92175 5.40854 5.40853C5.92177 4.8953 6.57565 4.5458 7.28751 4.40419C7.99937 4.2626 8.73723 4.33527 9.40781 4.61303C10.0783 4.89078 10.6515 5.36114 11.0547 5.96463C11.458 6.56811 11.6732 7.27762 11.6732 8.00343C11.6732 8.9767 11.2865 9.91011 10.5984 10.5984C9.91013 11.2865 8.97672 11.6731 8.00344 11.6731Z" fill="#222240"/>
</g>
</g>
</g>
<defs>
<clipPath id="clip0_507_6760">
<rect width="16" height="16" fill="white"/>
</clipPath>
<clipPath id="clip1_507_6760">
<rect width="11.2" height="11.2" fill="white" transform="translate(2.3999 2.40002)"/>
</clipPath>
</defs>
</svg>
