<svg xmlns="http://www.w3.org/2000/svg" xmlns:xlink="http://www.w3.org/1999/xlink" width="1116" height="217" viewBox="0 0 1116 217">
  <defs>
    <clipPath id="clip-Qeeword">
      <rect width="1116" height="217"/>
    </clipPath>
  </defs>
  <g id="Qeeword" clip-path="url(#clip-Qeeword)">
    <g id="Group_118858" data-name="Group 118858" transform="translate(5.863 -0.174)">
      <g id="Group_118851" data-name="Group 118851" transform="translate(967.92 9.509)">
        <path id="Path_373180" data-name="Path 373180" d="M1015.475,44.454V95.508h-.781a50.252,50.252,0,0,0-5.995-6.515,46.191,46.191,0,0,0-8.729-6.255,54.686,54.686,0,0,0-27.23-6.776,58.351,58.351,0,0,0-43.781,19.025,62.961,62.961,0,0,0-12.507,20.847,73.8,73.8,0,0,0-4.431,25.8,76.972,76.972,0,0,0,4.3,25.93,63.507,63.507,0,0,0,12.249,21.107A58.913,58.913,0,0,0,947.85,203a59.567,59.567,0,0,0,25.669,5.343,55.411,55.411,0,0,0,24.886-5.735,42.565,42.565,0,0,0,18.112-16.677h.52V204.7h29.707V44.212a25.947,25.947,0,0,1-31.271.242ZM1007.7,156.617a40.306,40.306,0,0,1-7.3,12.9,37.685,37.685,0,0,1-11.594,9.248,35.906,35.906,0,0,1-31.272-.128,34.692,34.692,0,0,1-11.206-9.383,40.053,40.053,0,0,1-6.646-13.028,49.974,49.974,0,0,1-2.214-14.6,48.722,48.722,0,0,1,2.214-14.463,40.384,40.384,0,0,1,6.646-12.9,33.352,33.352,0,0,1,11.206-9.249,34.028,34.028,0,0,1,15.9-3.518,31.953,31.953,0,0,1,15.376,3.648,39.539,39.539,0,0,1,11.594,9.38,40.091,40.091,0,0,1,7.3,13.031,45.19,45.19,0,0,1,2.477,14.592A44,44,0,0,1,1007.7,156.617Z" transform="translate(-912.019 -7.25)" fill="#222240"/>
        <path id="Path_373181" data-name="Path 373181" d="M1024.99,41.313a15.96,15.96,0,1,0-15.958-15.961A15.961,15.961,0,0,0,1024.99,41.313Z" transform="translate(-906.046 -9.394)" fill="#222240"/>
      </g>
      <g id="Group_118852" data-name="Group 118852" transform="translate(870.555 74.957)">
        <path id="Path_373182" data-name="Path 373182" d="M877.251,73.82a36.157,36.157,0,0,0-10.259,5.154A47.253,47.253,0,0,0,851.88,97.325h-.541V75.736H820.3V205.279h32.386V135.921a44.966,44.966,0,0,1,1.35-9.449,34.683,34.683,0,0,1,5.127-11.6,32.378,32.378,0,0,1,10.524-9.719,26.859,26.859,0,0,1,8.144-3.085,26.729,26.729,0,0,1-.584-28.246Z" transform="translate(-820.302 -70.875)" fill="#222240"/>
        <path id="Path_373183" data-name="Path 373183" d="M897.094,71.046a16.528,16.528,0,1,0,16.529,16.53A16.529,16.529,0,0,0,897.094,71.046Z" transform="translate(-816.591 -71.046)" fill="#222240"/>
      </g>
      <g id="Group_118853" data-name="Group 118853" transform="translate(497.369 76.545)">
        <path id="Path_373184" data-name="Path 373184" d="M675.82,72.955c.052.072.117.134.169.206l.07-.206Z" transform="translate(-456.012 -72.517)" fill="#222240"/>
        <path id="Path_373185" data-name="Path 373185" d="M644.24,106.723,626.056,168.05,596.609,73.057H561.247l-28.9,94.993L504.7,72.955H468.761l46.168,132.691h33.725l29.855-92.885h.552l30.131,92.879a.014.014,0,0,0,.012.006h33.711l.008-.006,30.937-89.459a27.041,27.041,0,0,1-29.62-9.459Z" transform="translate(-468.761 -72.517)" fill="#222240"/>
        <path id="Path_373186" data-name="Path 373186" d="M655.619,72.542a16.929,16.929,0,1,0,16.93,16.931A16.931,16.931,0,0,0,655.619,72.542Z" transform="translate(-458.298 -72.542)" fill="#222240"/>
      </g>
      <g id="Group_118854" data-name="Group 118854" transform="translate(720.121 75.52)">
        <path id="Path_373187" data-name="Path 373187" d="M743.107,119.819a16.271,16.271,0,1,0,16.272,16.272A16.27,16.27,0,0,0,743.107,119.819Z" transform="translate(-675.623 -68.606)" fill="#222240"/>
        <path id="Path_373188" data-name="Path 373188" d="M746.077,71.576a67.485,67.485,0,1,0,67.485,67.485A67.484,67.484,0,0,0,746.077,71.576Zm0,106.925a39.44,39.44,0,1,1,39.441-39.44A39.44,39.44,0,0,1,746.077,178.5Z" transform="translate(-678.593 -71.576)" fill="#222240"/>
      </g>
      <g id="Group_118855" data-name="Group 118855" transform="translate(221.49 75.484)">
        <path id="Path_373189" data-name="Path 373189" d="M291,178.668a48.449,48.449,0,0,1-13.789,1.88,37.538,37.538,0,0,1-13.294-2.393,40.2,40.2,0,0,1-11.433-6.513,32.1,32.1,0,0,1-8.109-9.837,31.467,31.467,0,0,1-3.588-12.63h97.043c-.407-17.792-1.288-30.086-4.389-38.684a60.487,60.487,0,0,0-12.895-21.537,53.391,53.391,0,0,0-19.541-13.025,67.335,67.335,0,0,0-24.592-4.389,71.644,71.644,0,0,0-26.72,4.919,62.439,62.439,0,0,0-35.625,35.36,73.177,73.177,0,0,0-5.186,28.05,71.877,71.877,0,0,0,5.186,28.048,59.257,59.257,0,0,0,14.356,20.873,64.517,64.517,0,0,0,21.669,13.159,77.955,77.955,0,0,0,27.385,4.655,75.906,75.906,0,0,0,28.424-5.12A26.765,26.765,0,0,1,291,178.668Zm-39.181-74.556q9.97-8.639,24.327-8.64A33.022,33.022,0,0,1,289.574,98a26.089,26.089,0,0,1,14.89,16.618,39.322,39.322,0,0,1,1.726,11.7h-65.4A31.482,31.482,0,0,1,251.822,104.112Z" transform="translate(-208.883 -71.542)" fill="#222240"/>
        <path id="Path_373190" data-name="Path 373190" d="M312.408,155.984a16.282,16.282,0,1,0,16.281,16.282A16.282,16.282,0,0,0,312.408,155.984Z" transform="translate(-203.511 -66.343)" fill="#da0000"/>
      </g>
      <g id="Group_118856" data-name="Group 118856" transform="translate(365.573 76.972)">
        <path id="Path_373191" data-name="Path 373191" d="M426.727,180.07a48.448,48.448,0,0,1-13.789,1.88,37.543,37.543,0,0,1-13.294-2.393,40.188,40.188,0,0,1-11.432-6.513,32.085,32.085,0,0,1-8.109-9.837,31.48,31.48,0,0,1-3.589-12.63h97.043c-.407-17.792-1.288-30.086-4.389-38.684a60.486,60.486,0,0,0-12.894-21.537,53.4,53.4,0,0,0-19.543-13.025,67.331,67.331,0,0,0-24.592-4.389,71.644,71.644,0,0,0-26.72,4.919,62.44,62.44,0,0,0-35.625,35.36,73.2,73.2,0,0,0-5.185,28.05,71.906,71.906,0,0,0,5.185,28.049,59.265,59.265,0,0,0,14.357,20.872,64.48,64.48,0,0,0,21.669,13.159,77.955,77.955,0,0,0,27.385,4.655,75.9,75.9,0,0,0,28.423-5.12A26.764,26.764,0,0,1,426.727,180.07Zm-39.181-74.556q9.971-8.639,24.327-8.64A33.018,33.018,0,0,1,425.3,99.4a26.094,26.094,0,0,1,14.891,16.618,39.354,39.354,0,0,1,1.726,11.7h-65.4A31.486,31.486,0,0,1,387.546,105.514Z" transform="translate(-344.609 -72.944)" fill="#222240"/>
        <path id="Path_373192" data-name="Path 373192" d="M448.133,157.386a16.282,16.282,0,1,0,16.282,16.282A16.282,16.282,0,0,0,448.133,157.386Z" transform="translate(-339.237 -67.745)" fill="#ff8200"/>
      </g>
      <g id="Group_118857" data-name="Group 118857" transform="translate(4.137 7.528)">
        <path id="Path_373193" data-name="Path 373193" d="M100.514,84.034a19.873,19.873,0,1,0,19.875,19.875A19.874,19.874,0,0,0,100.514,84.034Z" transform="translate(0.574 -2.817)" fill="#222240"/>
        <path id="Path_373194" data-name="Path 373194" d="M206.315,108.619a101.152,101.152,0,1,0-70.08,96.2h70.08V177.1H179.437A100.616,100.616,0,0,0,206.315,108.619ZM105.227,174.905a66.286,66.286,0,1,1,66.286-66.286A66.286,66.286,0,0,1,105.227,174.905Z" transform="translate(-4.137 -7.528)" fill="#222240"/>
      </g>
    </g>
  </g>
</svg>
